<svg width="166" height="62" viewBox="0 0 166 62" fill="none" xmlns="http://www.w3.org/2000/svg">
<path d="M35.1083 45L33.3443 39.708H21.6263L19.8623 45H13.6043L23.8943 15.6H31.0763L41.4083 45H35.1083ZM23.4743 34.29H31.5383L27.5063 22.278L23.4743 34.29ZM48.5147 27.612C49.0187 26.268 49.8447 25.26 50.9927 24.588C52.1687 23.916 53.4707 23.58 54.8987 23.58V29.628C53.2467 29.432 51.7627 29.768 50.4467 30.636C49.1587 31.504 48.5147 32.946 48.5147 34.962V45H43.0967V24H48.5147V27.612ZM69.7394 29.208H64.9934V37.944C64.9934 38.672 65.1754 39.204 65.5394 39.54C65.9034 39.876 66.4354 40.072 67.1354 40.128C67.8354 40.156 68.7034 40.142 69.7394 40.086V45C66.0154 45.42 63.3834 45.07 61.8434 43.95C60.3314 42.83 59.5754 40.828 59.5754 37.944V29.208H55.9214V24H59.5754V19.758L64.9934 18.12V24H69.7394V29.208ZM112.001 30.3C112.001 34.108 110.797 37.412 108.389 40.212L111.413 43.362L107.297 47.016L104.105 43.698C101.837 44.958 99.3729 45.588 96.7129 45.588C92.4849 45.588 88.8869 44.118 85.9189 41.178C82.9509 38.21 81.4669 34.584 81.4669 30.3C81.4669 26.016 82.9509 22.404 85.9189 19.464C88.8869 16.496 92.4849 15.012 96.7129 15.012C100.941 15.012 104.539 16.496 107.507 19.464C110.503 22.404 112.001 26.016 112.001 30.3ZM96.7129 39.918C97.8049 39.918 98.8969 39.736 99.9889 39.372L95.1589 34.332L99.2749 30.678L104.441 36.054C105.617 34.374 106.205 32.456 106.205 30.3C106.205 27.5 105.295 25.19 103.475 23.37C101.655 21.55 99.4009 20.64 96.7129 20.64C94.0249 20.64 91.7709 21.55 89.9509 23.37C88.1309 25.19 87.2209 27.5 87.2209 30.3C87.2209 33.072 88.1309 35.368 89.9509 37.188C91.7709 39.008 94.0249 39.918 96.7129 39.918ZM129.178 24H134.596V45H129.178V42.648C127.862 44.608 125.776 45.588 122.92 45.588C120.624 45.588 118.72 44.818 117.208 43.278C115.724 41.738 114.982 39.61 114.982 36.894V24H120.4V36.222C120.4 37.622 120.778 38.7 121.534 39.456C122.29 40.184 123.298 40.548 124.558 40.548C125.958 40.548 127.078 40.114 127.918 39.246C128.758 38.378 129.178 37.076 129.178 35.34V24ZM141.332 21.48C140.436 21.48 139.652 21.158 138.98 20.514C138.336 19.842 138.014 19.058 138.014 18.162C138.014 17.266 138.336 16.482 138.98 15.81C139.652 15.138 140.436 14.802 141.332 14.802C142.256 14.802 143.04 15.138 143.684 15.81C144.356 16.482 144.692 17.266 144.692 18.162C144.692 19.058 144.356 19.842 143.684 20.514C143.04 21.158 142.256 21.48 141.332 21.48ZM138.644 45V24H144.062V45H138.644ZM154.701 39.918H164.025V45H147.435V41.388L156.297 29.082H147.855V24H163.605V27.612L154.701 39.918Z" fill="white"/>
<circle cx="31" cy="31" r="30.5" stroke="white"/>
<circle cx="62" cy="31" r="30.5" stroke="white"/>
</svg>
